<svg xmlns="http://www.w3.org/2000/svg"  viewBox="0 0 40 40" width="26px" height="26px" baseProfile="basic"><path fill="#b2b2b2" d="M31.956,18.193C31.958,18.276,32,19.916,32,20c0,6.627-5.373,12-12,12S8,26.627,8,20	c0-6.627,5.373-12,12-12c3.735,0,7.071,1.707,9.272,4.383l3.122-2.497C29.459,6.295,24.999,4,20,4C11.163,4,4,11.163,4,20	s7.163,16,16,16c8.168,0,14.873-6.12,15.846-14.025C34.984,21.185,31.956,18.193,31.956,18.193z"/><linearGradient id="mjGGd5as0AovZ2p1-m6mqa" x1="32.061" x2="35.221" y1="27.544" y2="14.332" gradientUnits="userSpaceOnUse"><stop offset="0" stop-color="#b2b2b2"/><stop offset="1"/></linearGradient><path fill="url(#mjGGd5as0AovZ2p1-m6mqa)" d="M32,20c0,2.702-0.904,5.186-2.41,7.192l3.186,2.39c1.626-2.176,2.721-4.773,3.07-7.607	c-0.862-0.79-3.89-3.782-3.89-3.782C31.958,18.276,32,19.916,32,20z"/><polygon fill="#b2b2b2" points="35.858,22 21,22 21,18 32,18"/></svg>