<svg width="91" height="110" viewBox="0 0 91 110" fill="none" xmlns="http://www.w3.org/2000/svg">
<path d="M6.08878 20.2244C25.6077 18.9624 36.8928 12.9579 44.21 8.51643C44.1424 8.68713 44.1053 8.87318 44.1053 9.06789V18.5842C27.9997 19.1117 15.1053 32.334 15.1053 48.5679C15.1053 64.8018 27.9997 78.0241 44.1053 78.5515V100.991C14.3033 81.2296 6.08878 58.0912 6.08878 20.2244Z" fill="url(#paint0_linear_65_5)"/>
<path d="M45.756 7.56789L45.7455 7.57436L45.7675 7.57656L45.756 7.56789Z" fill="url(#paint1_linear_65_5)"/>
<path d="M84.1053 20.2244C67.4169 18.9472 54.012 13.257 46.9647 8.43289C47.0549 8.62572 47.1053 8.84092 47.1053 9.06789V18.6335C62.7414 19.6627 75.1053 32.6714 75.1053 48.5679C75.1053 64.4644 62.7414 77.4731 47.1053 78.5023V101.068C47.1053 101.143 47.0999 101.216 47.0893 101.288C78.336 82.6683 84.1053 54.2395 84.1053 20.2244Z" fill="url(#paint2_linear_65_5)"/>
<path d="M47.1053 22.6437C60.5302 23.6649 71.1053 34.8814 71.1053 48.5679C71.1053 62.2544 60.5302 73.4709 47.1053 74.4921V22.6437Z" fill="url(#paint3_linear_65_5)"/>
<path d="M44.1053 22.5868C30.2094 23.1123 19.1053 34.5433 19.1053 48.5679C19.1053 62.5924 30.2094 74.0235 44.1053 74.549V22.5868Z" fill="url(#paint4_linear_65_5)"/>
<path fill-rule="evenodd" clip-rule="evenodd" d="M44.9365 0.484687L45.8197 0L46.696 0.496919C53.5776 4.39884 71.5832 12.4957 88.9452 14.2673L90.4615 14.422L90.5637 15.9428C92.0132 37.5037 90.8806 85.1134 46.9451 109.152L46.0191 109.659L45.1232 109.101C23.3831 95.5531 12.0276 80.6396 6.16452 64.8136C0.331482 49.0687 0 32.5694 0 16.0639V14.4034L1.65471 14.2643C18.4913 12.8495 37.6385 4.48966 44.9365 0.484687ZM87.0539 17.6898C70.2087 15.639 53.2508 8.19491 45.7916 4.12631C37.9751 8.26131 20.0727 15.9238 3.61324 17.7041C3.64137 33.6578 4.15572 48.9944 9.55144 63.5588C15.0226 78.327 25.5762 92.4466 46.1352 105.471C86.1705 82.9269 88.3096 39.5038 87.0539 17.6898Z" fill="url(#paint5_linear_65_5)"/>
<defs>
<linearGradient id="paint0_linear_65_5" x1="91.1055" y1="54.8179" x2="0.105465" y2="54.8179" gradientUnits="userSpaceOnUse">
<stop offset="0.5" stop-color="#1878C6"/>
<stop offset="0.5" stop-color="#2093EF"/>
</linearGradient>
<linearGradient id="paint1_linear_65_5" x1="91.1055" y1="54.8179" x2="0.105465" y2="54.8179" gradientUnits="userSpaceOnUse">
<stop offset="0.5" stop-color="#1878C6"/>
<stop offset="0.5" stop-color="#2093EF"/>
</linearGradient>
<linearGradient id="paint2_linear_65_5" x1="91.1055" y1="54.8179" x2="0.105465" y2="54.8179" gradientUnits="userSpaceOnUse">
<stop offset="0.5" stop-color="#1878C6"/>
<stop offset="0.5" stop-color="#2093EF"/>
</linearGradient>
<linearGradient id="paint3_linear_65_5" x1="91.1055" y1="54.8179" x2="0.105465" y2="54.8179" gradientUnits="userSpaceOnUse">
<stop offset="0.5" stop-color="#1878C6"/>
<stop offset="0.5" stop-color="#2093EF"/>
</linearGradient>
<linearGradient id="paint4_linear_65_5" x1="91.1055" y1="54.8179" x2="0.105465" y2="54.8179" gradientUnits="userSpaceOnUse">
<stop offset="0.5" stop-color="#1878C6"/>
<stop offset="0.5" stop-color="#2093EF"/>
</linearGradient>
<linearGradient id="paint5_linear_65_5" x1="91.1055" y1="54.8179" x2="0.105465" y2="54.8179" gradientUnits="userSpaceOnUse">
<stop offset="0.5" stop-color="#1878C6"/>
<stop offset="0.5" stop-color="#2093EF"/>
</linearGradient>
</defs>
</svg>
