<svg width="91" height="110" viewBox="0 0 91 110" fill="none" xmlns="http://www.w3.org/2000/svg">
<path fill-rule="evenodd" clip-rule="evenodd" d="M45.7012 0.484687L44.818 0L43.9416 0.496919C37.0145 4.42468 19.2948 12.999 1.96548 14.7673L0.449176 14.922L0.346939 16.4428C-1.10308 38.0114 0.0335187 85.1154 43.9654 109.152L44.8914 109.659L45.7873 109.101C67.5217 95.5566 78.8792 80.7713 84.7444 65.0681C90.5795 49.4457 90.9107 33.0686 90.9107 16.5639V14.9034L89.256 14.7643C72.4398 13.3512 53.0293 4.50618 45.7012 0.484687ZM3.85679 18.1886C20.7144 16.109 37.4427 8.21192 44.8474 4.12841C52.6589 8.28407 70.8059 16.3927 87.2975 18.2028C87.2693 34.1495 86.7548 49.3628 81.3608 63.8043C76.0314 78.073 65.8758 91.7307 46.3323 104.471V100.65C76.6057 81.8208 84.4996 57.6621 84.4996 19.7244C64.9396 18.4597 53.6482 12.4326 46.3323 7.98844V7.56786C46.3323 6.73944 45.6607 6.06786 44.8323 6.06786C44.0039 6.06786 43.3323 6.73944 43.3323 7.56786V8.13039C36.2108 12.9111 22.9442 18.4646 6.483 19.7244C6.483 53.6789 12.2318 82.067 43.3323 100.689V104.568C43.3323 104.592 43.3329 104.617 43.3341 104.641C4.68519 81.8925 2.61659 39.7097 3.85679 18.1886ZM43.3323 77.4652V100.689C43.8259 100.984 44.3259 101.277 44.8324 101.568C45.3383 101.263 45.8383 100.958 46.3323 100.65V77.5638C62.6702 77.2969 75.8324 63.9695 75.8324 47.5679C75.8324 31.1663 62.6702 17.8389 46.3323 17.572V7.98844C45.8128 7.67285 45.3133 7.36525 44.8324 7.06789C44.3679 7.41626 43.8674 7.77115 43.3323 8.13039V17.6706C27.9335 18.941 15.8324 31.8413 15.8324 47.5679C15.8324 63.2945 27.9335 76.1948 43.3323 77.4652ZM43.3323 73.4492V77.4652C44.1566 77.5332 44.9905 77.5679 45.8324 77.5679C45.9993 77.5679 46.166 77.5665 46.3323 77.5638V73.5632C60.461 73.2967 71.8324 61.7603 71.8324 47.5679C71.8324 33.3755 60.461 21.839 46.3323 21.5726V17.572C46.166 17.5693 45.9993 17.5679 45.8324 17.5679C44.9905 17.5679 44.1566 17.6026 43.3323 17.6706V21.6865C30.1458 22.9446 19.8324 34.0518 19.8324 47.5679C19.8324 61.084 30.1458 72.1912 43.3323 73.4492ZM43.3323 21.6865V73.4492C44.1551 73.5277 44.989 73.5679 45.8324 73.5679C45.9994 73.5679 46.166 73.5663 46.3323 73.5632V21.5726C46.166 21.5695 45.9994 21.5679 45.8324 21.5679C44.989 21.5679 44.1551 21.608 43.3323 21.6865ZM43.3341 104.641C43.8089 104.921 44.2893 105.197 44.7753 105.471C45.3008 105.138 45.8198 104.805 46.3323 104.471V104.568C46.3323 105.396 45.6607 106.068 44.8323 106.068C44.0285 106.068 43.3723 105.436 43.3341 104.641Z" fill="#83DBF6"/>
</svg>
